<svg width="289" height="65" fill="none" xmlns="http://www.w3.org/2000/svg"><g clip-path="url(#a)" fill="#0F1B2A"><path d="M79.298 43.894c-.416 0-.76-.143-1.023-.43a1.424 1.424 0 0 1-.399-1.003V5.244c0-.419.132-.764.399-1.029.267-.268.607-.4 1.023-.4h7.633c.416 0 .767.136 1.052.4.285.269.428.61.428 1.03v37.22c0 .382-.142.716-.428 1.003-.285.287-.636.43-1.052.43h-7.633v-.004ZM97.75 43.894c-.416 0-.76-.143-1.023-.43a1.424 1.424 0 0 1-.398-1.003V5.244c0-.419.131-.764.398-1.029.267-.268.607-.4 1.023-.4h7.519c.417 0 .761.136 1.024.4.267.269.398.61.398 1.03V35.25h17.257c.417 0 .76.143 1.023.43.267.286.399.64.399 1.058v5.726c0 .382-.135.716-.399 1.003-.266.287-.606.43-1.023.43H97.75v-.004ZM131.752 43.894c-.417 0-.76-.143-1.023-.43a1.424 1.424 0 0 1-.399-1.003V5.244c0-.419.132-.764.399-1.029.266-.268.606-.4 1.023-.4h7.519c.417 0 .76.136 1.024.4.266.269.398.61.398 1.03V35.25h17.257c.416 0 .76.143 1.023.43.267.286.399.64.399 1.058v5.726c0 .382-.136.716-.399 1.003-.267.287-.607.43-1.023.43h-26.198v-.004ZM162.051 43.894c-.303 0-.578-.124-.826-.37-.249-.247-.369-.526-.369-.831 0-.191.018-.364.058-.515L174.3 5.417c.113-.419.351-.79.713-1.117.362-.324.862-.485 1.509-.485h8.43c.643 0 1.147.161 1.509.485.362.323.6.698.713 1.117l13.327 36.761c.077.155.114.324.114.515 0 .305-.125.58-.37.83s-.541.371-.884.371h-7.007c-.571 0-.998-.143-1.284-.43-.285-.286-.464-.544-.54-.771l-2.223-5.84h-15.206l-2.164 5.84c-.077.227-.249.485-.512.771-.267.287-.72.43-1.367.43h-7.007Zm13.386-15.288h10.593l-5.297-15.115-5.296 15.115ZM206.532 43.894c-.416 0-.76-.143-1.023-.43a1.423 1.423 0 0 1-.398-1.003V5.244c0-.419.131-.764.398-1.029.267-.268.607-.4 1.023-.4h15.492c4.934 0 8.809 1.135 11.62 3.406 2.811 2.272 4.214 5.487 4.214 9.647 0 2.713-.646 5.002-1.937 6.873-1.29 1.87-3.001 3.281-5.125 4.237l7.805 14.086c.113.228.171.441.171.629 0 .305-.124.58-.369.83s-.523.371-.826.371h-7.574c-.72 0-1.254-.18-1.593-.544-.34-.363-.589-.694-.742-1.003l-6.492-12.598h-5.809v12.712c0 .382-.142.717-.427 1.003-.285.287-.636.43-1.053.43h-7.355Zm8.828-22.274h6.55c1.784 0 3.122-.437 4.014-1.316.892-.878 1.338-2.061 1.338-3.55 0-1.488-.428-2.69-1.283-3.608-.856-.916-2.212-1.375-4.072-1.375h-6.551v9.85h.004ZM245.886 43.894c-.417 0-.761-.143-1.024-.43a1.423 1.423 0 0 1-.398-1.003V5.244c0-.419.131-.764.398-1.029.267-.268.607-.4 1.024-.4h7.519c.416 0 .76.136 1.023.4.267.269.398.61.398 1.03V35.25h17.257c.417 0 .761.143 1.024.43.267.286.398.64.398 1.058v5.726c0 .382-.135.716-.398 1.003-.267.287-.607.43-1.024.43h-26.197v-.004ZM279.887 43.894c-.416 0-.76-.143-1.023-.43a1.424 1.424 0 0 1-.399-1.003V5.244c0-.419.132-.764.399-1.029.267-.268.607-.4 1.023-.4h7.633c.416 0 .767.136 1.052.4.285.269.428.61.428 1.03v37.22c0 .382-.143.716-.428 1.003-.285.287-.636.43-1.052.43h-7.633v-.004ZM103.131 60.891a.641.641 0 0 1-.391-.11.777.777 0 0 1-.241-.338L98.189 48.4a.628.628 0 0 1-.036-.206c0-.1.036-.187.113-.26a.362.362 0 0 1 .26-.111h.39c.125 0 .22.033.29.103.069.07.109.128.12.176l4.068 11.43 4.069-11.43a.76.76 0 0 1 .131-.176c.062-.07.154-.103.278-.103h.391c.099 0 .186.037.26.11a.36.36 0 0 1 .109.261.643.643 0 0 1-.036.206l-4.31 12.043a.691.691 0 0 1-.223.338c-.099.074-.234.11-.409.11h-.523ZM113.457 61.079c-1.202 0-2.153-.397-2.862-1.187-.705-.79-1.107-1.827-1.206-3.11a13.137 13.137 0 0 1-.018-.745c0-.309.007-.559.018-.746.062-.845.259-1.595.596-2.242a3.765 3.765 0 0 1 1.385-1.514c.589-.36 1.283-.54 2.091-.54.866 0 1.605.194 2.211.58.607.386 1.075.941 1.404 1.661.329.724.493 1.58.493 2.577v.279c0 .125-.04.224-.12.298a.441.441 0 0 1-.307.114h-6.613v.187c.026.558.154 1.091.391 1.595a3.15 3.15 0 0 0 1.002 1.231c.435.316.947.478 1.543.478.533 0 .976-.081 1.326-.243.355-.162.636-.338.845-.533.212-.19.347-.338.409-.437.11-.162.198-.257.26-.29a.666.666 0 0 1 .296-.048h.296a.43.43 0 0 1 .289.103c.08.07.113.158.102.272-.011.172-.11.39-.289.643a3.635 3.635 0 0 1-.76.757c-.329.25-.727.456-1.199.617a4.849 4.849 0 0 1-1.579.243h-.004Zm-2.935-5.62h5.907v-.073c0-.62-.117-1.183-.355-1.68a2.865 2.865 0 0 0-1.019-1.186c-.446-.294-.98-.438-1.598-.438-.617 0-1.148.147-1.586.438a2.784 2.784 0 0 0-1.002 1.187c-.23.5-.343 1.058-.343 1.68v.073h-.004ZM120.421 60.891a.397.397 0 0 1-.296-.11.403.403 0 0 1-.114-.297v-8.89a.391.391 0 0 1 .41-.412h.314c.124 0 .223.037.296.114.073.074.11.173.11.298v.878c.332-.437.738-.79 1.217-1.066.475-.272 1.111-.411 1.904-.411.841 0 1.547.183 2.109.55.563.368.984.864 1.265 1.493.278.628.417 1.341.417 2.139v5.303a.404.404 0 0 1-.11.298.399.399 0 0 1-.296.11h-.314a.399.399 0 0 1-.296-.11.406.406 0 0 1-.114-.298v-5.211c0-.996-.241-1.775-.723-2.345-.483-.566-1.188-.849-2.117-.849-.881 0-1.586.283-2.127.849-.537.566-.808 1.349-.808 2.345v5.21a.404.404 0 0 1-.11.299.404.404 0 0 1-.296.11h-.314l-.007.003ZM134.464 61.079c-.716 0-1.327-.133-1.827-.393a3.387 3.387 0 0 1-1.218-1.048 4.43 4.43 0 0 1-.676-1.455 7.765 7.765 0 0 1-.252-1.624 8.98 8.98 0 0 1-.018-.522c0-.162.007-.335.018-.522.026-.548.11-1.088.252-1.624a4.503 4.503 0 0 1 .676-1.456 3.422 3.422 0 0 1 1.218-1.047c.5-.265 1.111-.393 1.827-.393.768 0 1.404.143 1.905.43.501.286.906.635 1.217 1.047v-4.425c0-.125.037-.224.113-.297a.405.405 0 0 1 .296-.11h.315c.124 0 .223.036.296.11a.41.41 0 0 1 .109.297v12.437a.403.403 0 0 1-.109.297.399.399 0 0 1-.296.11h-.315a.399.399 0 0 1-.296-.11.406.406 0 0 1-.113-.297v-.879a3.755 3.755 0 0 1-1.217 1.055c-.501.28-1.137.419-1.905.419Zm.114-1.084c.705 0 1.275-.17 1.707-.504a3.03 3.03 0 0 0 .965-1.26 4.12 4.12 0 0 0 .332-1.522c.011-.187.019-.43.019-.727 0-.298-.008-.54-.019-.728a3.83 3.83 0 0 0-.343-1.474 3.02 3.02 0 0 0-.976-1.212c-.435-.324-.998-.486-1.689-.486-.691 0-1.29.162-1.718.486a2.67 2.67 0 0 0-.921 1.271 5.54 5.54 0 0 0-.314 1.68c-.011.349-.011.698 0 1.047.025.599.131 1.157.314 1.68.186.521.493.944.921 1.27.428.324.998.486 1.718.486l.004-.007ZM145.328 61.079c-1.203 0-2.153-.397-2.862-1.187-.706-.79-1.108-1.827-1.206-3.11a12.987 12.987 0 0 1-.019-.745c0-.309.008-.559.019-.746.062-.845.259-1.595.595-2.242a3.767 3.767 0 0 1 1.386-1.514c.588-.36 1.283-.54 2.091-.54.866 0 1.604.194 2.211.58.607.386 1.075.941 1.404 1.661.329.724.493 1.58.493 2.577v.279c0 .125-.04.224-.12.298a.441.441 0 0 1-.307.114H142.4v.187c.026.558.154 1.091.391 1.595.234.503.57.915 1.002 1.231.435.316.946.478 1.542.478.534 0 .976-.081 1.327-.243.355-.162.636-.338.845-.533.212-.19.347-.338.409-.437.11-.162.197-.257.259-.29a.671.671 0 0 1 .297-.048h.296c.109 0 .208.033.288.103.081.07.114.158.103.272-.011.172-.11.39-.289.643a3.635 3.635 0 0 1-.76.757c-.329.25-.728.456-1.199.617a4.849 4.849 0 0 1-1.579.243h-.004Zm-2.935-5.62h5.907v-.073c0-.62-.117-1.183-.355-1.68a2.867 2.867 0 0 0-1.02-1.186c-.446-.294-.979-.438-1.597-.438s-1.148.147-1.586.438a2.784 2.784 0 0 0-1.002 1.187c-.23.5-.344 1.058-.344 1.68v.073h-.003ZM160.264 61.079c-1.203 0-2.153-.397-2.863-1.187-.705-.79-1.107-1.827-1.206-3.11a13.137 13.137 0 0 1-.018-.745c0-.309.007-.559.018-.746.062-.845.26-1.595.596-2.242a3.772 3.772 0 0 1 1.385-1.514c.589-.36 1.283-.54 2.091-.54.867 0 1.605.194 2.212.58.606.386 1.074.941 1.403 1.661.329.724.494 1.58.494 2.577v.279c0 .125-.04.224-.121.298a.44.44 0 0 1-.307.114h-6.612v.187c.025.558.153 1.091.391 1.595.234.503.57.915 1.001 1.231.435.316.947.478 1.543.478.534 0 .976-.081 1.327-.243.354-.162.636-.338.844-.533.212-.19.347-.338.41-.437.109-.162.197-.257.259-.29a.666.666 0 0 1 .296-.048h.296c.11 0 .209.033.289.103.08.07.113.158.102.272-.011.172-.109.39-.288.643-.18.253-.435.507-.761.757-.329.25-.727.456-1.199.617a4.845 4.845 0 0 1-1.579.243h-.003Zm-2.936-5.62h5.907v-.073c0-.62-.117-1.183-.354-1.68a2.875 2.875 0 0 0-1.02-1.186c-.446-.294-.98-.438-1.597-.438-.618 0-1.148.147-1.587.438a2.782 2.782 0 0 0-1.001 1.187c-.231.5-.344 1.058-.344 1.68v.073h-.004ZM167.227 60.891a.399.399 0 0 1-.296-.11.406.406 0 0 1-.113-.297v-8.89a.39.39 0 0 1 .113-.298.401.401 0 0 1 .296-.114h.314c.125 0 .223.037.296.114.073.074.11.173.11.298v.878c.333-.437.738-.79 1.217-1.066.475-.272 1.111-.411 1.905-.411.84 0 1.546.183 2.109.55.563.368.983.864 1.264 1.493.278.628.417 1.341.417 2.139v5.303a.403.403 0 0 1-.109.298.401.401 0 0 1-.297.11h-.314a.399.399 0 0 1-.296-.11.406.406 0 0 1-.113-.298v-5.211c0-.996-.242-1.775-.724-2.345-.483-.566-1.188-.849-2.116-.849-.881 0-1.587.283-2.128.849-.537.566-.808 1.349-.808 2.345v5.21a.403.403 0 0 1-.109.299.405.405 0 0 1-.296.11h-.315l-.007.003ZM186.71 61.079c-1.002 0-1.854-.162-2.555-.485-.699-.324-1.236-.743-1.609-1.25-.373-.51-.57-1.05-.595-1.624 0-.1.036-.188.113-.261a.379.379 0 0 1 .278-.11h.372c.125 0 .22.036.289.11a.44.44 0 0 1 .121.26c.051.35.205.695.464 1.037.26.342.643.629 1.152.86.508.232 1.162.346 1.97.346 1.213 0 2.098-.22 2.657-.662.556-.44.837-1.036.837-1.782 0-.496-.146-.9-.435-1.206-.292-.305-.734-.58-1.327-.823a32.004 32.004 0 0 0-2.284-.812c-.881-.287-1.605-.58-2.175-.886-.57-.305-.987-.676-1.254-1.11-.267-.437-.398-.995-.398-1.68 0-.635.168-1.204.5-1.708.333-.503.819-.904 1.459-1.205.636-.298 1.415-.449 2.332-.449.731 0 1.367.1 1.912.298.544.198.998.463 1.356.794.358.33.632.683.819 1.066.186.378.285.75.296 1.11a.41.41 0 0 1-.092.253c-.062.08-.161.121-.296.121h-.373a.562.562 0 0 1-.234-.073c-.091-.048-.153-.151-.175-.298-.073-.621-.398-1.135-.976-1.54-.577-.404-1.323-.606-2.237-.606-.914 0-1.667.18-2.248.54-.581.36-.874.926-.874 1.698 0 .496.132.904.391 1.224.26.32.669.599 1.225.841.556.243 1.276.507 2.153.794.928.298 1.696.6 2.303.897.607.297 1.06.661 1.356 1.091.296.43.446.989.446 1.672 0 .761-.19 1.404-.567 1.934-.376.529-.914.933-1.608 1.212-.695.28-1.524.42-2.489.42v-.008ZM197.391 61.079c-1.203 0-2.153-.397-2.863-1.187-.705-.79-1.107-1.827-1.206-3.11a13.137 13.137 0 0 1-.018-.745c0-.309.007-.559.018-.746.062-.845.26-1.595.596-2.242a3.772 3.772 0 0 1 1.385-1.514c.589-.36 1.283-.54 2.091-.54.867 0 1.605.194 2.212.58.606.386 1.074.941 1.403 1.661.329.724.494 1.58.494 2.577v.279c0 .125-.04.224-.121.298a.44.44 0 0 1-.307.114h-6.612v.187c.025.558.153 1.091.391 1.595.234.503.57.915 1.001 1.231.435.316.947.478 1.543.478.534 0 .976-.081 1.327-.243.354-.162.636-.338.844-.533.212-.19.347-.338.41-.437.109-.162.197-.257.259-.29a.666.666 0 0 1 .296-.048h.296c.11 0 .209.033.289.103.08.07.113.158.102.272-.011.172-.109.39-.288.643-.18.253-.435.507-.761.757-.329.25-.727.456-1.199.617a4.845 4.845 0 0 1-1.579.243h-.003Zm-2.936-5.62h5.907v-.073c0-.62-.117-1.183-.354-1.68a2.875 2.875 0 0 0-1.02-1.186c-.446-.294-.98-.438-1.597-.438-.618 0-1.148.147-1.587.438a2.782 2.782 0 0 0-1.001 1.187c-.231.5-.344 1.058-.344 1.68v.073h-.004ZM207.549 65c-.794 0-1.441-.107-1.941-.316-.501-.213-.892-.47-1.17-.776-.278-.305-.475-.61-.585-.915-.11-.305-.172-.55-.186-.738a.353.353 0 0 1 .113-.309.425.425 0 0 1 .296-.121h.26c.098 0 .186.022.259.066.073.044.135.15.187.327.073.198.193.434.361.702.169.268.435.5.801.702.366.198.87.297 1.513.297.68 0 1.25-.088 1.707-.26a1.961 1.961 0 0 0 1.049-.926c.242-.441.362-1.055.362-1.838v-1.29c-.31.423-.716.776-1.217 1.055-.501.28-1.137.419-1.904.419-.72 0-1.327-.133-1.832-.394a3.358 3.358 0 0 1-1.217-1.047 4.668 4.668 0 0 1-.687-1.455 6.488 6.488 0 0 1-.241-1.624c-.011-.35-.011-.699 0-1.048a6.486 6.486 0 0 1 .241-1.624 4.59 4.59 0 0 1 .687-1.456 3.427 3.427 0 0 1 1.217-1.047c.501-.264 1.112-.393 1.832-.393.767 0 1.403.143 1.904.43.501.287.907.636 1.217 1.047v-.86c0-.125.037-.228.114-.308a.378.378 0 0 1 .296-.122h.296c.124 0 .226.04.307.122.08.08.12.183.12.308v9.096c0 .797-.117 1.518-.354 2.164a3.04 3.04 0 0 1-1.254 1.551c-.599.386-1.451.581-2.555.581h.004Zm.018-5.005c.705 0 1.276-.17 1.707-.504.435-.334.753-.757.958-1.26.204-.504.318-1.011.343-1.522a11.472 11.472 0 0 0 0-1.345 4.632 4.632 0 0 0-.343-1.521 2.982 2.982 0 0 0-.958-1.26c-.435-.335-1.002-.504-1.707-.504-.706 0-1.29.161-1.718.485a2.67 2.67 0 0 0-.921 1.271 5.57 5.57 0 0 0-.315 1.68c-.011.349-.011.698 0 1.047.026.6.132 1.158.315 1.68.186.522.493.944.921 1.271.428.324 1.001.485 1.718.485v-.003ZM218.361 61.079c-.841 0-1.539-.184-2.091-.551a3.256 3.256 0 0 1-1.224-1.503c-.267-.636-.399-1.346-.399-2.128v-5.303c0-.125.037-.225.11-.298a.401.401 0 0 1 .296-.114h.314c.125 0 .223.037.296.114a.403.403 0 0 1 .114.298v5.21c0 2.129.921 3.194 2.767 3.194.877 0 1.586-.283 2.116-.849.534-.566.801-1.348.801-2.344v-5.211c0-.125.036-.225.109-.298a.404.404 0 0 1 .297-.114h.314a.388.388 0 0 1 .409.412v8.89a.39.39 0 0 1-.113.297.405.405 0 0 1-.296.11h-.314a.401.401 0 0 1-.297-.11.403.403 0 0 1-.109-.297v-.879c-.333.438-.735.79-1.199 1.066-.464.272-1.1.412-1.905.412l.004-.004ZM226.012 60.891a.397.397 0 0 1-.296-.11.403.403 0 0 1-.114-.297v-8.89a.391.391 0 0 1 .41-.412h.314c.124 0 .223.037.296.114.073.074.11.173.11.298v.878c.332-.437.738-.79 1.217-1.066.475-.272 1.111-.411 1.904-.411.841 0 1.547.183 2.11.55a3.4 3.4 0 0 1 1.264 1.493c.278.628.417 1.341.417 2.139v5.303a.404.404 0 0 1-.11.298.399.399 0 0 1-.296.11h-.314a.399.399 0 0 1-.296-.11.406.406 0 0 1-.114-.298v-5.211c0-.996-.241-1.775-.723-2.345-.483-.566-1.188-.849-2.117-.849-.881 0-1.586.283-2.127.849-.537.566-.808 1.349-.808 2.345v5.21a.4.4 0 0 1-.11.299.404.404 0 0 1-.296.11h-.314l-.007.003ZM240.052 61.079c-.717 0-1.327-.133-1.828-.393a3.383 3.383 0 0 1-1.217-1.048 4.41 4.41 0 0 1-.676-1.455 7.701 7.701 0 0 1-.253-1.624 8.98 8.98 0 0 1-.018-.522c0-.162.007-.335.018-.522.026-.548.11-1.088.253-1.624a4.482 4.482 0 0 1 .676-1.456 3.418 3.418 0 0 1 1.217-1.047c.501-.265 1.111-.393 1.828-.393.767 0 1.403.143 1.904.43.501.286.907.635 1.217 1.047v-4.425c0-.125.037-.224.114-.297a.402.402 0 0 1 .296-.11h.314c.124 0 .223.036.296.11a.41.41 0 0 1 .11.297v12.437a.404.404 0 0 1-.11.297.399.399 0 0 1-.296.11h-.314a.397.397 0 0 1-.296-.11.406.406 0 0 1-.114-.297v-.879c-.31.423-.716.776-1.217 1.055-.501.28-1.137.419-1.904.419Zm.113-1.084c.706 0 1.276-.17 1.707-.504.435-.334.757-.757.965-1.26.212-.504.322-1.011.333-1.522.011-.187.018-.43.018-.727 0-.298-.007-.54-.018-.728a3.813 3.813 0 0 0-.344-1.474 3.02 3.02 0 0 0-.976-1.212c-.435-.324-.998-.486-1.689-.486-.69 0-1.29.162-1.718.486a2.684 2.684 0 0 0-.921 1.271 5.601 5.601 0 0 0-.314 1.68c-.011.349-.011.698 0 1.047.025.599.131 1.157.314 1.68.187.521.494.944.921 1.27.428.324.998.486 1.718.486l.004-.007ZM251.01 61.079c-.892 0-1.637-.188-2.237-.559a3.638 3.638 0 0 1-1.374-1.532 5.306 5.306 0 0 1-.512-2.165 13.938 13.938 0 0 1-.018-.783c0-.334.007-.599.018-.782.026-.809.194-1.533.512-2.176a3.675 3.675 0 0 1 1.374-1.521c.6-.375 1.345-.559 2.237-.559.892 0 1.638.187 2.237.559.6.374 1.06.882 1.375 1.521.314.643.486 1.367.512 2.176.01.187.018.448.018.782 0 .335-.008.6-.018.783-.026.798-.194 1.518-.512 2.165a3.662 3.662 0 0 1-1.375 1.532c-.599.375-1.345.559-2.237.559Zm0-1.084c.867 0 1.572-.28 2.117-.842.544-.562.837-1.37.873-2.429.011-.188.019-.415.019-.69 0-.277-.008-.504-.019-.692-.036-1.07-.329-1.881-.873-2.436-.545-.555-1.25-.83-2.117-.83-.866 0-1.571.275-2.116.83-.545.555-.837 1.367-.874 2.436a11.97 11.97 0 0 0-.018.691c0 .272.007.503.018.691.037 1.058.329 1.867.874 2.43.545.558 1.25.84 2.116.84ZM260.763 61.079c-.644 0-1.199-.088-1.663-.261-.465-.173-.845-.382-1.141-.625-.296-.242-.515-.481-.658-.72-.142-.235-.219-.415-.234-.54-.011-.136.029-.24.132-.31a.48.48 0 0 1 .278-.102h.277c.074 0 .139.011.194.037a.655.655 0 0 1 .212.206c.161.213.347.415.556.606.212.195.479.345.808.456.329.114.738.169 1.235.169.742 0 1.356-.144 1.839-.43.482-.287.723-.71.723-1.272 0-.349-.095-.628-.288-.841-.194-.213-.519-.397-.976-.559-.457-.162-1.079-.33-1.857-.504-.779-.187-1.378-.411-1.791-.672-.417-.26-.698-.562-.845-.904a2.734 2.734 0 0 1-.223-1.11c0-.437.125-.864.373-1.279.249-.415.618-.76 1.104-1.025.49-.268 1.104-.4 1.85-.4.606 0 1.122.08 1.55.242.427.162.778.356 1.049.588.27.231.475.456.603.68.131.224.201.404.212.54a.326.326 0 0 1-.114.298.447.447 0 0 1-.296.11h-.277a.409.409 0 0 1-.242-.066.704.704 0 0 1-.168-.177 3.19 3.19 0 0 0-.446-.558 1.879 1.879 0 0 0-.698-.42c-.292-.106-.684-.157-1.181-.157-.742 0-1.294.154-1.652.46a1.467 1.467 0 0 0-.537 1.168c0 .275.073.514.223.72.15.206.427.393.837.559.409.169 1.001.345 1.784.533.793.176 1.418.39 1.875.643.457.253.782.558.976.904.19.349.289.76.289 1.23 0 .5-.139.96-.417 1.383-.278.422-.695.764-1.243 1.018-.552.253-1.228.382-2.032.382ZM4.386 0C1.974 0 0 1.985 0 4.41v38.955c0 8.085 6.58 14.7 14.621 14.7h38.747c2.412 0 4.386-1.984 4.386-4.41V0H4.386Zm12.728 50.002c-3.213 0-5.936-2.565-5.936-5.795V10.114h7.654v32.193h13.229l2.314 7.699h-17.26v-.004Zm32.247 0h-7.654v-32.19H28.478l-2.313-7.698h17.26c3.213 0 5.936 2.565 5.936 5.795v34.093Z"/></g><defs><clipPath id="a"><path fill="#fff" d="M0 0h289v65H0z"/></clipPath></defs></svg>